<?xml version="1.0" standalone="no"?><!DOCTYPE svg PUBLIC "-//W3C//DTD SVG 1.1//EN" "http://www.w3.org/Graphics/SVG/1.1/DTD/svg11.dtd"><svg t="1604831192281" class="icon" viewBox="0 0 1024 1024" version="1.1" xmlns="http://www.w3.org/2000/svg" p-id="2864" xmlns:xlink="http://www.w3.org/1999/xlink" width="200" height="200"><defs><style type="text/css"></style></defs><path d="M1004.8 533.333333H21.333333c-10.666667 0-19.2-8.533333-19.2-19.2V512c0-12.8 8.533333-21.333333 19.2-21.333333h983.466667c10.666667 0 19.2 8.533333 19.2 19.2v2.133333c2.133333 12.8-8.533333 21.333333-19.2 21.333333z" p-id="2865"></path><path d="M535.466667 21.333333v981.333334c0 10.666667-8.533333 21.333333-21.333334 21.333333-10.666667 0-21.333333-10.666667-21.333333-21.333333V21.333333c0-10.666667 8.533333-21.333333 21.333333-21.333333 10.666667 0 21.333333 8.533333 21.333334 21.333333z" p-id="2866"></path></svg>