<?xml version="1.0" standalone="no"?><!DOCTYPE svg PUBLIC "-//W3C//DTD SVG 1.1//EN" "http://www.w3.org/Graphics/SVG/1.1/DTD/svg11.dtd"><svg t="1604835785633" class="icon" viewBox="0 0 1024 1024" version="1.1" xmlns="http://www.w3.org/2000/svg" p-id="2887" xmlns:xlink="http://www.w3.org/1999/xlink" width="200" height="200"><defs><style type="text/css"></style></defs><path d="M886.272 253.952c-31.232-91.136-116.736-154.112-211.456-154.112-5.12 0-9.728 0-14.336 0.512C606.72 55.808 538.624 30.72 468.992 30.72 343.04 30.72 230.4 110.592 184.32 229.888 73.728 274.432 0 385.024 0 508.416c0 161.28 126.976 294.4 283.136 299.008H405.504c14.848 0 27.136-12.288 27.136-27.136s-12.288-27.136-27.136-27.136H286.72c-128.512-2.56-232.96-112.128-232.96-245.248 0-104.96 64.512-198.144 160.768-231.936 7.68-2.56 13.824-8.704 16.384-16.896 35.328-103.936 131.072-174.08 238.08-174.08 60.416 0 119.296 22.528 164.864 64 5.632 5.12 13.312 7.68 21.504 6.656 6.656-1.024 13.312-1.536 19.968-1.536 74.24 0 141.312 51.712 162.816 125.44 2.048 6.656 6.144 12.288 12.288 15.872 73.728 43.52 119.808 125.44 119.808 212.992 0 132.608-104.448 242.688-232.96 245.248h-132.608c-14.848 0-27.136 12.288-27.136 27.136s12.288 27.136 27.136 27.136h135.68c156.672-4.096 283.136-137.728 283.136-299.008 0.512-103.936-51.712-200.192-137.216-254.976z" fill="#333333" p-id="2888"></path><path d="M627.2 703.488c5.12 5.12 12.288 7.68 18.944 7.68s13.824-2.56 18.944-7.68c10.752-10.752 10.752-27.648 0-37.888L547.84 547.84c-22.528-22.528-59.392-22.528-82.432 0L348.16 665.088c-10.752 10.752-10.752 27.648 0 37.888 10.752 10.752 27.648 10.752 37.888 0l93.184-93.184v355.84c0 14.848 12.288 27.136 27.136 27.136s27.136-12.288 27.136-27.136v-355.84l93.696 93.696z" fill="#333333" p-id="2889"></path></svg>