<?xml version="1.0" encoding="UTF-8"?>
<svg width="20px" height="20px" viewBox="0 0 20 20" version="1.1" xmlns="http://www.w3.org/2000/svg" xmlns:xlink="http://www.w3.org/1999/xlink">
    <title>删除</title>
    <g id="页面-1" stroke="none" stroke-width="1" fill="none" fill-rule="evenodd">
        <g id="弹窗-删除" transform="translate(-1138.000000, -331.000000)" fill="#FFFFFF" fill-rule="nonzero">
            <g id="删除" transform="translate(1138.000000, 331.000000)">
                <path d="M17.9002487,0.347802622 C18.3864069,-0.121744569 19.1591796,-0.115029332 19.6371045,0.362895544 C20.1150293,0.840820419 20.1217446,1.61359313 19.6521974,2.09975135 L11.7671892,9.98475954 L19.6521974,17.8697678 C20.1217446,18.355926 20.1150293,19.1286987 19.6371045,19.6066236 C19.1591796,20.0845484 18.3864069,20.0912637 17.9002487,19.6217165 L10.0152404,11.7367083 L2.13023223,19.6217165 C1.81915049,19.9438033 1.3584853,20.0729767 0.925293718,19.9595889 C0.492102135,19.8462011 0.153798869,19.5078979 0.0404110709,19.0747063 C-0.0729767274,18.6415147 0.0561967265,18.1808495 0.378283505,17.8697678 L8.26329173,9.98475954 L0.378283505,2.09975135 C-0.0912636856,1.61359313 -0.0845484487,0.840820419 0.393376427,0.362895544 C0.871301303,-0.115029332 1.64407402,-0.121744569 2.13023223,0.347802622 L10.0152404,8.23281085 L17.9002487,0.347802622 Z" id="路径"></path>
            </g>
        </g>
    </g>
</svg>