<?xml version="1.0" standalone="no"?><!DOCTYPE svg PUBLIC "-//W3C//DTD SVG 1.1//EN" "http://www.w3.org/Graphics/SVG/1.1/DTD/svg11.dtd"><svg t="1561997375551" class="icon" viewBox="0 0 1025 1024" version="1.1" xmlns="http://www.w3.org/2000/svg" p-id="1278" width="64.0625" height="64" xmlns:xlink="http://www.w3.org/1999/xlink"><defs><style type="text/css"></style></defs><path d="M1001.16738 15.008c-11.616-9.76-26.176-15.008-41.12-15.008-3.68 0-7.424 0.32-11.136 0.992l-544.064 96c-30.592 5.376-52.864 31.936-52.864 63.008l0 549.44c-32.48-23.552-74.624-37.44-121.408-37.44-27.2 0-54.4 4.512-80.928 13.312-60.736 20.256-109.44 60.864-133.632 111.488-18.688 39.136-21.088 81.696-6.848 119.872 24.352 65.216 93.536 107.328 176.256 107.328 27.2 0 54.4-4.448 80.896-13.312 60.704-20.192 109.408-60.8 133.6-111.36 10.4-21.824 15.264-44.672 15.456-67.328l0.576 0 0-512c3.68 0 7.424-0.32 11.136-0.928l532.96-94.048 0 388.416c-32.512-23.552-74.624-37.44-121.44-37.44-27.2 0-54.432 4.512-80.928 13.312-60.736 20.256-109.44 60.864-133.568 111.488-18.688 39.136-21.12 81.696-6.88 119.872 24.384 65.216 93.504 107.328 176.256 107.328 27.2 0 54.432-4.448 80.928-13.312 60.672-20.192 109.376-60.8 133.568-111.36 10.432-21.824 15.264-44.672 15.488-67.328l0.576 0 0-672c0-18.88-8.384-36.864-22.88-48.992zM246.03138 950.016c-76.672 25.568-155.936 0.576-176.928-55.68-21.056-56.32 24.032-122.688 100.672-148.256 76.672-25.568 155.936-0.64 176.928 55.68 21.088 56.288-24 122.688-100.672 148.256zM852.91138 854.016c-76.736 25.568-156 0.576-176.992-55.68-21.056-56.32 24.064-122.688 100.672-148.256 76.736-25.568 156-0.64 176.992 55.68 21.088 56.288-23.968 122.688-100.672 148.256zM958.73538 160l-544.064 96 0-96 544.064-96 0 96z" p-id="1279" fill="#707070"></path></svg>